<svg xmlns="http://www.w3.org/2000/svg" width="1024" height="1024" viewBox="0 0 1024 1024" version="1.1">
	<path d="M 408.500 138.999 C 385.296 142.221, 364.905 161.282, 356.053 188.022 C 350.741 204.069, 349.586 228.794, 353.047 252.367 C 355.457 268.784, 358.611 279.094, 368.137 301.684 C 381.003 332.196, 384.589 345.410, 387.489 373 C 390.490 401.537, 392.052 412.416, 394.997 425.280 C 405.194 469.818, 428.042 495.363, 451.563 488.525 C 464.232 484.842, 473.072 471.646, 493.782 425.500 C 498.719 414.500, 503.099 404.375, 503.514 403 C 503.930 401.625, 504.884 399.612, 505.635 398.527 C 507.495 395.840, 507.396 395.501, 504.347 394.112 C 501.934 393.013, 501.393 393.196, 498.347 396.148 C 496.506 397.932, 495 399.736, 495 400.157 C 495 400.818, 486.256 419.500, 470.486 452.535 C 457.264 480.231, 443.081 485.324, 426.805 468.221 C 420.162 461.241, 414.898 452.017, 410.441 439.546 C 403.901 421.248, 401.462 409.003, 397.545 374.803 C 393.771 341.855, 390.857 329.651, 380.759 304.500 C 369.022 275.266, 364.171 255.836, 363.282 234.500 C 361.710 196.768, 374.474 165.882, 396.008 155.309 C 412.846 147.041, 427.923 148.695, 462.850 162.638 C 486.737 172.175, 495.634 174.339, 511 174.352 C 526.804 174.366, 538.316 171.676, 561.235 162.616 C 581.865 154.461, 588.972 152.307, 599.861 150.910 C 617.035 148.708, 629.947 152.722, 640.670 163.596 C 654.722 177.847, 660.841 201.045, 659.710 235.779 C 658.927 259.803, 656.642 269.057, 642.047 307.301 C 633.070 330.826, 630.896 340.405, 626.457 376 C 624.503 391.675, 622.005 408.946, 620.906 414.380 C 611.555 460.641, 588.782 487.564, 569.697 474.923 C 563.368 470.731, 557.739 461.923, 547.617 440.377 C 530.636 404.230, 524.184 391.451, 521.869 389.375 C 520.566 388.207, 516.488 385.370, 512.806 383.071 C 498.964 374.428, 496.599 368.138, 504.298 360.439 L 508.596 356.141 505.048 354.154 C 501.858 352.368, 501.226 352.312, 498.784 353.598 C 494.691 355.753, 491 362.762, 491 368.378 C 491 376.085, 495.712 382.869, 504.500 387.814 C 505.911 388.608, 506.058 388.951, 505 388.979 C 504.175 389.001, 506.200 390.746, 509.500 392.856 C 517.194 397.777, 518.346 399.150, 521.835 407.551 C 532.193 432.490, 546.042 461.071, 553.133 472.141 C 558.594 480.668, 561.559 483.694, 567.500 486.804 C 584.820 495.872, 606.747 482.309, 619.543 454.612 C 627.303 437.818, 631.728 417.478, 635.517 381.181 C 639.364 344.340, 640.892 338.217, 655.102 302.695 C 668.051 270.328, 670.678 260.324, 672.485 236.500 C 673.247 226.460, 671.574 205.452, 669.021 193 C 663.761 167.343, 646.214 147.076, 623.500 140.422 C 615.987 138.221, 601.431 138.226, 591 140.433 C 586.875 141.306, 572.925 145.606, 560 149.988 C 532.542 159.297, 521.976 161.456, 507.500 160.717 C 495.290 160.094, 486.072 157.788, 464.414 149.939 C 438.038 140.381, 421.645 137.173, 408.500 138.999 M 508.315 194.441 C 505.050 195.884, 502 200.410, 502 203.811 C 502 204.861, 503.125 207.379, 504.500 209.405 L 507 213.089 507 254.986 L 507 296.882 511.250 297.728 L 515.500 298.573 516.138 289.536 C 516.489 284.566, 516.827 265.303, 516.888 246.729 L 517 212.957 519.616 209.004 C 521.668 205.903, 522.096 204.326, 521.601 201.685 C 520.400 195.283, 514.136 191.868, 508.315 194.441 M 476 203.721 C 475.175 204.031, 470.065 206.265, 464.645 208.686 C 447.878 216.176, 427.311 221.947, 417.250 221.984 C 411.874 222.004, 411.730 223.588, 416.610 228.990 C 423.353 236.454, 430.843 236.565, 450.809 229.499 C 456.139 227.612, 459.646 226.714, 458.603 227.503 C 455.194 230.078, 442.446 234.905, 435.650 236.195 C 431.992 236.888, 429.001 237.691, 429.002 237.978 C 429.006 239.163, 438.912 245.137, 442.528 246.135 C 449.879 248.165, 460.936 244.826, 471.140 237.495 C 473.813 235.574, 476 234.414, 476 234.916 C 476 236.487, 466.466 242.914, 459.354 246.139 L 452.548 249.225 456.524 251.347 C 462.741 254.666, 474.776 254.364, 481.750 250.714 C 484.637 249.203, 487 248.290, 487 248.686 C 487 249.081, 485.538 250.945, 483.750 252.827 L 480.500 256.249 485.189 255.754 C 494.404 254.782, 500.707 249.515, 503.045 240.834 C 504.664 234.821, 503.437 230.579, 499.542 228.721 C 495.743 226.910, 492 220.167, 492 215.135 C 492 206.717, 483.732 200.819, 476 203.721 M 537.763 204.509 C 534.394 206.406, 532.007 210.818, 531.978 215.200 C 531.942 220.618, 528.573 226.759, 524.596 228.655 C 520.178 230.763, 519.317 234.138, 521.384 241.248 C 523.798 249.553, 532.293 256, 540.822 256 L 543.392 256 540.196 252.702 C 538.438 250.889, 537 249.114, 537 248.758 C 537 248.402, 539.587 249.323, 542.750 250.805 C 550.003 254.204, 560.253 254.543, 566.782 251.598 C 570.870 249.755, 572.305 248.010, 569.750 247.990 C 565.720 247.959, 547 236.352, 547 233.885 C 547 233.406, 549.037 234.568, 551.526 236.468 C 557.880 241.318, 568.099 245.988, 573.851 246.669 C 579.816 247.375, 585.081 245.801, 590.719 241.625 C 595.317 238.220, 595.974 237, 593.210 237 C 588.428 237, 564.151 228.515, 565.390 227.277 C 565.626 227.041, 569.797 228.207, 574.659 229.867 C 594.161 236.529, 601.758 236.331, 608.390 228.990 C 613.396 223.449, 613.161 222.004, 607.250 221.984 C 596.252 221.948, 576.030 216.258, 558.750 208.337 C 547.527 203.192, 541.917 202.169, 537.763 204.509 M 472.430 267.542 C 470.192 268.369, 466.592 270.858, 464.430 273.071 C 460.775 276.815, 460.500 277.500, 460.500 282.871 C 460.500 296.180, 469.600 302.116, 499.031 308.006 C 520.010 312.205, 527.012 315.075, 530.358 320.848 C 534.209 327.492, 532.149 332.379, 523.311 337.558 C 518.330 340.477, 517.835 342.830, 521.706 345.179 C 524.298 346.751, 524.647 346.702, 529.956 344.001 C 542.799 337.468, 546.878 328.086, 541.500 317.446 C 537.111 308.765, 530.030 305.345, 506.500 300.545 C 481.960 295.539, 471 290.365, 471 283.787 C 471 278.339, 477.099 276.673, 487.907 279.168 C 495.193 280.850, 498.234 279.352, 497.810 274.293 C 497.560 271.310, 496.852 270.221, 494.138 268.642 C 489.687 266.051, 478.055 265.462, 472.430 267.542 M 531.251 267.920 C 525.748 270.486, 524.052 273.904, 526.459 277.578 C 528.062 280.025, 528.573 280.184, 532.851 279.571 C 543.513 278.044, 547.648 277.882, 550.250 278.888 C 552.507 279.760, 553 280.564, 553 283.372 C 553 289.738, 544.097 294.862, 526.960 298.358 L 520.630 299.649 526.021 301.412 C 528.987 302.382, 532.264 303.772, 533.304 304.500 C 534.901 305.619, 536.035 305.536, 540.590 303.969 C 547.848 301.472, 555.982 297.331, 558.845 294.675 C 564.462 289.465, 565.730 280.862, 561.750 274.957 C 556.535 267.219, 540.627 263.548, 531.251 267.920 M 483.704 312.940 C 479.717 317.678, 478.399 323.050, 479.951 328.231 C 482.297 336.062, 488.517 341.478, 505.155 350.179 C 525.458 360.797, 528.892 367.312, 519.360 377.125 L 515.839 380.749 518.824 382.875 C 520.466 384.044, 522.260 385, 522.812 385 C 523.363 385, 525.867 382.717, 528.376 379.927 C 538.902 368.219, 534.344 357.378, 513.955 345.626 C 495.884 335.210, 491.015 330.983, 491.004 325.700 C 490.997 322.279, 494.127 317.875, 498.571 315.057 L 503.031 312.228 499.766 311.649 C 487.662 309.502, 486.520 309.594, 483.704 312.940 M 507.806 314.750 C 507.635 315.163, 507.635 320.481, 507.806 326.569 C 508.115 337.538, 508.144 337.654, 510.963 339.319 C 512.528 340.244, 514.255 341, 514.800 341 C 515.397 341, 515.851 335.873, 515.939 328.128 C 516.082 315.497, 516.042 315.244, 513.792 314.641 C 510.663 313.803, 508.181 313.848, 507.806 314.750 M 510.163 360.327 C 508.395 362.209, 508 363.839, 508 369.258 C 508 374.937, 508.313 376.105, 510.182 377.415 C 513.854 379.987, 515 377.867, 515 368.500 C 515 358.824, 513.676 356.587, 510.163 360.327 M 509.371 399.250 C 508.890 399.938, 508.641 407.839, 508.818 416.810 L 509.139 433.119 511.820 432.810 L 514.500 432.500 514.839 417.177 C 515.137 403.708, 514.967 401.621, 513.434 399.927 C 511.396 397.676, 510.568 397.538, 509.371 399.250 M 460.146 532.514 C 453.074 534.493, 449.174 537.405, 446.905 542.401 C 443.119 550.738, 445.337 560.577, 452.400 566.778 C 454.443 568.572, 460.476 572.234, 465.807 574.916 C 479.153 581.632, 482.830 586.130, 481.484 594.096 C 479.340 606.786, 458.729 607.465, 450.829 595.106 C 449.210 592.573, 447.629 589.263, 447.317 587.750 C 446.942 585.929, 446.116 585, 444.875 585 C 442.789 585, 442.488 588.092, 443.640 597.683 C 444.253 602.784, 444.345 602.903, 449.381 605.112 C 455.431 607.765, 470.158 608.846, 476.599 607.109 C 485.345 604.752, 490.388 599.521, 492.134 591 C 494.609 578.915, 489.531 571.802, 472.380 563.334 C 458.939 556.697, 455 552.991, 455 546.981 C 455 544.046, 455.737 542.207, 457.868 539.822 C 460.432 536.952, 461.413 536.573, 467.118 536.252 C 475.637 535.771, 478.903 537.803, 482.689 545.938 C 484.385 549.584, 486.128 551.983, 487.085 551.990 C 488.441 551.999, 488.602 550.812, 488.202 543.750 C 487.945 539.212, 487.232 535.177, 486.617 534.782 C 484.983 533.733, 476.261 531.922, 470.500 531.437 C 467.742 531.204, 463.099 531.687, 460.146 532.514 M 307.500 534.250 C 307.260 534.938, 306.330 537.750, 305.434 540.500 C 302 551.038, 283.754 595.678, 281.421 599.250 C 279.950 601.502, 278.178 603, 276.986 603 C 275.667 603, 275 603.671, 275 605 C 275 606.879, 275.667 607, 286 607 C 297.824 607, 299.959 605.895, 293.728 603 C 290.817 601.647, 290.516 601.104, 290.668 597.466 C 290.760 595.247, 292.046 590.409, 293.524 586.716 L 296.213 580 309.034 580 L 321.855 580 324.982 588.111 C 328.946 598.389, 328.768 602.127, 324.250 603.457 C 322.462 603.983, 321 604.996, 321 605.707 C 321 606.705, 324.322 607, 335.573 607 C 348.772 607, 350.116 606.839, 349.818 605.294 C 349.637 604.355, 348.372 603.324, 347.006 603.001 C 345.640 602.679, 343.617 601.072, 342.511 599.431 C 341.405 597.789, 334.900 582.171, 328.056 564.723 L 315.611 533 311.774 533 C 309.604 533, 307.747 533.543, 307.500 534.250 M 360 534.375 C 360 535.131, 361.370 536.024, 363.044 536.359 C 368.484 537.447, 369.002 540.442, 368.985 570.718 C 368.969 600.239, 368.687 601.845, 363.236 603.457 C 361.456 603.983, 360 604.996, 360 605.707 C 360 606.709, 363.485 607, 375.469 607 C 388.808 607, 390.858 606.793, 390.362 605.500 C 390.045 604.675, 388.914 604, 387.848 604 C 386.781 604, 384.805 602.895, 383.455 601.545 C 381.087 599.178, 381 598.604, 381 585.371 L 381 571.651 383.602 574.076 C 385.034 575.409, 391.628 582.892, 398.258 590.704 C 411.786 606.645, 413.842 608, 424.520 608 C 429.389 608, 431 607.654, 431 606.608 C 431 605.843, 429.928 604.948, 428.618 604.619 C 427.308 604.290, 422.641 600.079, 418.247 595.261 C 405.003 580.735, 393 566.592, 393.002 565.515 C 393.004 564.957, 398.516 558.826, 405.252 551.891 C 415.066 541.788, 418.494 538.904, 422.500 537.383 C 431.200 534.078, 429.478 533, 415.500 533 C 406.097 533, 403.062 533.307, 403.250 534.238 C 403.387 534.919, 404.738 536.022, 406.250 536.690 C 407.762 537.357, 409 538.372, 409 538.945 C 409 540.086, 399.365 551.227, 388.198 563 L 381.084 570.500 381.042 555.684 C 381.019 547.536, 381.446 540.035, 381.992 539.016 C 382.537 537.996, 384.337 536.865, 385.992 536.502 C 387.646 536.138, 389 535.202, 389 534.421 C 389 533.258, 386.362 533, 374.500 533 C 362.864 533, 360 533.272, 360 534.375 M 506 534.500 C 506 535.325, 506.850 536, 507.889 536 C 508.928 536, 510.841 536.860, 512.139 537.912 L 514.500 539.824 514.500 570.001 L 514.500 600.177 512.139 602.089 C 510.841 603.140, 508.928 604, 507.889 604 C 506.850 604, 506 604.675, 506 605.500 C 506 606.766, 508.315 607, 520.833 607 C 532.980 607, 535.667 606.743, 535.667 605.580 C 535.667 604.763, 534.255 603.895, 532.345 603.537 C 530.519 603.194, 528.569 602.063, 528.012 601.023 C 527.455 599.983, 527 592.802, 527 585.066 L 527 571 546 571 L 565 571 565 583.935 C 565 598.684, 564.216 601.715, 559.990 603.310 C 558.346 603.931, 557 605.015, 557 605.719 C 557 606.701, 560.381 607, 571.500 607 C 583.722 607, 586 606.764, 586 605.500 C 586 604.656, 585.106 604, 583.955 604 C 582.830 604, 580.805 602.895, 579.455 601.545 L 577 599.091 577 570 L 577 540.909 579.455 538.455 C 580.805 537.105, 582.755 536, 583.788 536 C 584.821 536, 585.667 535.325, 585.667 534.500 C 585.667 533.236, 583.407 533, 571.333 533 C 560.350 533, 557 533.299, 557 534.281 C 557 534.985, 558.346 536.069, 559.990 536.690 C 564.139 538.256, 565 541.327, 565 554.565 L 565 566 546 566 L 527 566 527 553.434 C 527 546.523, 527.455 540.017, 528.012 538.977 C 528.569 537.937, 530.519 536.806, 532.345 536.463 C 534.255 536.105, 535.667 535.237, 535.667 534.420 C 535.667 533.257, 532.980 533, 520.833 533 C 508.315 533, 506 533.234, 506 534.500 M 626.476 536.250 C 625.407 541.343, 604.045 594.635, 601.622 598.256 C 600.428 600.040, 598.449 601.944, 597.225 602.487 C 596.001 603.030, 595 604.268, 595 605.237 C 595 606.809, 596.137 607, 605.500 607 C 616.850 607, 618.628 606.003, 612.994 602.797 C 609.134 600.600, 609.092 597.026, 612.815 587.500 L 615.550 580.500 628.639 580.222 L 641.729 579.944 644.864 589.400 C 646.589 594.601, 648 599.548, 648 600.393 C 648 602.181, 645.023 604, 642.097 604 C 640.700 604, 640.243 604.470, 640.638 605.500 C 641.460 607.641, 668.505 607.733, 669.324 605.598 C 669.984 603.879, 669.199 603, 667.008 603 C 666.095 603, 664.352 601.939, 663.134 600.643 C 661.282 598.671, 643.749 556.175, 637.392 538.250 C 635.548 533.049, 635.491 533, 631.345 533 C 627.429 533, 627.115 533.210, 626.476 536.250 M 678.221 534.160 C 678.375 534.893, 680.068 535.957, 681.984 536.524 C 687.772 538.237, 687.969 539.376, 687.985 571.177 L 688 599.855 685.365 601.927 C 683.916 603.067, 681.891 604, 680.865 604 C 679.839 604, 679 604.675, 679 605.500 C 679 606.767, 681.333 607, 694 607 C 706.667 607, 709 606.767, 709 605.500 C 709 604.656, 708.106 604, 706.955 604 C 705.830 604, 703.805 602.895, 702.455 601.545 C 700.120 599.211, 700 598.501, 700 587.045 L 700 575 702.923 575 C 707.305 575, 711.321 579.041, 717.656 589.829 C 726.779 605.362, 730.542 607.983, 743.750 607.994 C 748.486 607.999, 750 607.656, 750 606.579 C 750 605.798, 748.639 604.860, 746.976 604.495 C 742.155 603.436, 738.119 599.278, 730.351 587.366 C 726.358 581.243, 722.286 575.429, 721.304 574.447 C 719.896 573.039, 719.807 572.564, 720.884 572.205 C 721.636 571.955, 724.524 570.562, 727.302 569.111 C 736.477 564.318, 739.675 553.382, 734.673 543.907 C 732.857 540.467, 731.063 538.842, 726.497 536.500 L 720.649 533.500 699.296 533.164 C 681.901 532.890, 677.994 533.074, 678.221 534.160 M 700 554.005 L 700 571.278 706.007 570.733 C 713.810 570.026, 718.934 567.314, 721.734 562.412 C 726.126 554.720, 723.793 543.604, 716.947 539.606 C 714.992 538.464, 710.982 537.517, 706.852 537.222 L 700 536.731 700 554.005 M 303.500 561.233 C 300.750 567.941, 298.350 573.783, 298.167 574.215 C 297.983 574.647, 302.596 575, 308.417 575 C 314.238 575, 319 574.706, 319 574.348 C 319 573.087, 309.494 549.016, 309 549.026 C 308.725 549.031, 306.250 554.524, 303.500 561.233 M 627.392 550.583 C 627.021 551.637, 624.757 557.359, 622.359 563.297 C 619.962 569.236, 618 574.298, 618 574.547 C 618 574.796, 622.725 575, 628.500 575 C 634.275 575, 639 574.777, 639 574.505 C 639 573.460, 629.663 550.453, 628.885 549.583 C 628.415 549.056, 627.779 549.482, 627.392 550.583 M 347 643.750 C 347 653.182, 348.795 655.004, 350.940 647.750 C 352.929 641.027, 354.356 640, 361.705 640 L 368.099 640 367.800 664.452 C 367.613 679.707, 367.107 689.296, 366.456 689.946 C 365.882 690.519, 364.194 691.089, 362.706 691.212 C 361.218 691.335, 360 692.013, 360 692.718 C 360 693.695, 363.094 694, 373 694 C 385.329 694, 389.592 692.948, 383.069 691.515 C 381.457 691.161, 379.675 690.313, 379.108 689.630 C 378.088 688.402, 377.454 668.829, 377.815 649.750 L 378 640 383.545 640 C 388.075 640, 389.533 640.442, 391.505 642.414 C 392.832 643.742, 394.231 646.104, 394.613 647.664 C 395.288 650.418, 396.838 652.215, 397.952 651.533 C 398.254 651.348, 398.357 647.665, 398.182 643.349 L 397.863 635.500 372.432 635.500 L 347 635.500 347 643.750 M 566.703 636.379 C 553.957 641.138, 546 652.465, 546 665.852 C 546 678.610, 550.953 686.882, 561.785 692.215 C 567.865 695.208, 569.260 695.496, 577.479 695.460 C 584.703 695.428, 587.546 694.955, 591.750 693.087 C 596.906 690.795, 597 690.677, 597 686.459 C 597 684.096, 597.273 681.452, 597.607 680.582 C 598.815 677.435, 595.317 679.028, 592.918 682.718 C 589.140 688.527, 584.701 691, 578.048 691 C 569.960 691, 564.242 687.231, 560.372 679.350 C 557.892 674.299, 557.500 672.339, 557.502 665 C 557.505 657.561, 557.879 655.751, 560.502 650.500 C 564.634 642.230, 569.986 638.533, 577.830 638.533 C 584.829 638.533, 588.606 640.897, 592.083 647.450 C 595.084 653.107, 597 653.370, 597 648.125 C 597 641.294, 595.969 638.310, 593.148 636.976 C 589.106 635.066, 571.298 634.663, 566.703 636.379 M 827.703 636.442 C 811.770 642.126, 803.561 659.058, 808.567 675.913 C 810.348 681.911, 816.368 689.127, 821.980 691.990 C 830.606 696.391, 843.180 696.860, 852.995 693.147 C 857.736 691.354, 858.609 689.738, 858.882 682.250 C 859.045 677.773, 856.689 678.014, 853.996 682.750 C 850.967 688.080, 847.493 690.295, 841.366 690.803 C 834.291 691.389, 831.658 690.589, 827.094 686.466 C 821.358 681.284, 818.666 674.271, 818.630 664.419 C 818.572 648.585, 826.502 639, 839.661 639 C 845.232 639, 846.320 639.342, 849.425 642.069 C 851.347 643.756, 853.478 646.681, 854.161 648.569 C 854.869 650.526, 856.088 652, 856.998 652 C 858.344 652, 858.529 650.941, 858.173 645.250 C 857.941 641.538, 857.245 638.177, 856.626 637.782 C 852.248 634.992, 834.124 634.152, 827.703 636.442 M 151 637.335 C 151 638.259, 152.082 638.993, 153.727 639.184 C 158.422 639.728, 158.969 642.432, 158.985 665.185 C 158.993 676.562, 158.566 687.012, 158.035 688.407 C 157.487 689.850, 155.977 691.219, 154.535 691.580 C 153.141 691.930, 151.999 692.731, 151.998 693.358 C 151.997 694.191, 156.938 694.361, 170.248 693.988 C 186.786 693.524, 188.945 693.256, 193.238 691.133 C 202.978 686.318, 208.380 676.996, 208.437 664.904 C 208.486 654.804, 204.803 647.077, 197.655 642.277 C 190.477 637.458, 187.097 636.766, 168.250 636.263 C 153.220 635.861, 151 635.999, 151 637.335 M 220 637.500 C 220 638.325, 220.810 639, 221.800 639 C 225.753 639, 226 640.535, 226 665.129 C 226 685.367, 225.769 689.088, 224.429 690.429 C 223.564 691.293, 222.214 692, 221.429 692 C 220.643 692, 220 692.563, 220 693.250 C 220 694.211, 224.967 694.500, 241.500 694.500 L 263 694.500 263.011 690.500 C 263.017 688.300, 263.301 684.813, 263.642 682.750 C 264.451 677.853, 261.928 677.543, 260.198 682.328 C 259.536 684.159, 257.836 686.746, 256.419 688.078 C 254.103 690.256, 252.972 690.500, 245.172 690.500 L 236.500 690.500 236.218 678.750 L 235.937 667 242.813 667 C 250.116 667, 252.009 668.023, 253.449 672.750 C 254.957 677.697, 256 674.493, 256 664.917 C 256 657.297, 255.695 654.934, 254.750 655.245 C 254.063 655.471, 253.357 656.630, 253.182 657.820 C 252.661 661.353, 249.194 663, 242.277 663 L 236 663 236 651.500 L 236 640 243.596 640 C 252.649 640, 256.249 641.708, 258.779 647.204 C 260.368 650.656, 262.633 651.884, 262.400 649.167 C 262.345 648.525, 262.233 645.300, 262.150 642 L 262 636 241 636 C 223 636, 220 636.214, 220 637.500 M 275 637.434 C 275 638.254, 276.176 639.002, 277.750 639.184 C 282.139 639.689, 282.879 643.689, 282.944 667.250 C 282.996 686.708, 282.875 688.125, 281 690 C 279.900 691.100, 278.325 692, 277.500 692 C 276.675 692, 276 692.563, 276 693.250 C 276 694.162, 278.567 694.500, 285.500 694.500 C 295.406 694.500, 297.922 693.214, 292.035 691.162 C 290.250 690.540, 288.844 689.207, 288.501 687.814 C 288.188 686.541, 288.060 677.105, 288.216 666.845 L 288.500 648.189 307 671.515 C 320.501 688.537, 326.081 694.862, 327.649 694.920 L 329.799 695 329.254 672.709 C 328.955 660.450, 329.033 648.263, 329.429 645.628 C 330.064 641.391, 330.544 640.671, 333.574 639.405 C 339.427 636.959, 337.576 636, 327 636 C 318.778 636, 317 636.267, 317 637.500 C 317 638.325, 317.830 639, 318.845 639 C 323.201 639, 323.886 641.590, 324.201 659.276 C 324.366 668.476, 324.267 676.002, 323.983 676.001 C 323.698 676.001, 316.303 667, 307.550 656 L 291.634 636 283.317 636 C 276.762 636, 275 636.304, 275 637.434 M 425.140 638.187 C 409.215 681.085, 404.764 691, 401.432 691 C 400.644 691, 400 691.675, 400 692.500 C 400 693.700, 401.500 694, 407.500 694 C 411.625 694, 415.326 694.034, 415.725 694.075 C 417.622 694.271, 416.767 692.215, 414.526 691.194 C 411.368 689.755, 411.300 687.435, 414.175 679.250 L 416.370 673 426.236 673 L 436.102 673 437.672 676.750 C 441.202 685.184, 441.927 688.930, 440.337 690.520 C 439.523 691.334, 438.214 692, 437.429 692 C 436.643 692, 436 692.450, 436 693 C 436 693.609, 440.500 694, 447.500 694 C 459.168 694, 462.040 692.956, 456.083 690.879 C 452.766 689.723, 452.653 689.485, 440.079 657 C 432.282 636.854, 432.091 636.495, 429.072 636.187 C 426.621 635.937, 425.825 636.342, 425.140 638.187 M 468 637.500 C 468 638.325, 468.874 639, 469.943 639 C 474.404 639, 475 642.022, 475 664.657 C 475 676.324, 474.566 687.012, 474.035 688.407 C 473.487 689.850, 471.977 691.219, 470.535 691.580 C 469.141 691.930, 468 692.731, 468 693.358 C 468 694.185, 473.997 694.443, 489.750 694.292 L 511.500 694.084 511.828 686.542 C 512.084 680.646, 511.855 679, 510.779 679 C 510.021 679, 508.860 680.498, 508.198 682.328 C 506.006 688.391, 502.989 690.237, 494.368 690.790 C 487.720 691.217, 486.499 691.036, 485.340 689.451 C 484.312 688.045, 484.023 682.711, 484.100 666.559 C 484.155 654.976, 484.506 644.375, 484.881 643 C 485.337 641.325, 486.624 640.184, 488.781 639.543 C 490.551 639.017, 492 638.004, 492 637.293 C 492 636.307, 489.147 636, 480 636 C 470 636, 468 636.250, 468 637.500 M 610 637.500 C 610 638.325, 610.845 639, 611.878 639 C 615.992 639, 616.484 641.326, 616.836 662.474 C 617.218 685.332, 616.426 690.604, 612.464 691.598 C 611.109 691.939, 610 692.731, 610 693.358 C 610 694.178, 616.027 694.500, 631.385 694.500 L 652.769 694.500 653.441 687.094 C 654.312 677.475, 652.768 676.141, 649.110 683.354 C 647.084 687.348, 645.716 688.767, 643 689.694 C 638.409 691.259, 628.724 691.324, 627.200 689.800 C 626.338 688.938, 626 682.249, 626 666.023 C 626 641.925, 626.547 639, 631.057 639 C 632.126 639, 633 638.325, 633 637.500 C 633 636.254, 631.056 636, 621.500 636 C 611.944 636, 610 636.254, 610 637.500 M 665 637.500 C 665 638.325, 665.845 639, 666.878 639 C 671.013 639, 671.484 641.290, 671.821 662.989 C 672.196 687.238, 671.732 690.103, 667.202 691.457 C 665.441 691.983, 664 692.744, 664 693.148 C 664 693.552, 669.401 694.021, 676.002 694.191 C 684.510 694.410, 688.003 694.168, 688.002 693.358 C 688.001 692.731, 686.859 691.930, 685.465 691.580 C 684.023 691.219, 682.513 689.850, 681.965 688.407 C 681.434 687.012, 681.007 676.562, 681.015 665.185 C 681.030 643.081, 681.636 639.775, 685.775 639.180 C 686.999 639.005, 688 638.217, 688 637.430 C 688 636.273, 685.807 636, 676.500 636 C 666.944 636, 665 636.254, 665 637.500 M 699 637.375 C 699 638.131, 700.298 639.010, 701.885 639.327 C 706.368 640.224, 707 643.660, 707 667.149 C 707 686.667, 706.872 688.128, 705 690 C 703.900 691.100, 702.325 692, 701.500 692 C 700.675 692, 700 692.563, 700 693.250 C 700 694.167, 702.667 694.500, 710 694.500 C 720.536 694.500, 722.739 693.392, 716.610 691.176 C 714.558 690.434, 712.985 689.072, 712.624 687.725 C 711.751 684.468, 711.867 647.987, 712.750 648.071 C 713.163 648.111, 715.975 651.463, 719 655.521 C 737.009 679.679, 749.606 694.869, 751.687 694.933 L 753.873 695 753.342 671.750 C 752.716 644.339, 753.189 640.908, 757.781 639.543 C 759.551 639.017, 761 638.004, 761 637.293 C 761 636.322, 758.512 636, 751 636 C 742.778 636, 741 636.267, 741 637.500 C 741 638.325, 741.830 639, 742.845 639 C 747.166 639, 747.841 641.561, 748.179 659.252 C 748.356 668.465, 748.275 675.977, 748 675.945 C 747.725 675.913, 740.525 666.942, 732 656.009 L 716.500 636.131 707.750 636.065 C 700.961 636.015, 699 636.308, 699 637.375 M 772 637.500 C 772 638.325, 772.868 639, 773.929 639 C 778.698 639, 779 640.575, 779 665.416 C 779 686.694, 778.843 688.832, 777.171 690.345 C 776.165 691.255, 774.590 692, 773.671 692 C 772.752 692, 772 692.424, 772 692.941 C 772 693.460, 777.386 694.021, 784.002 694.191 C 793.102 694.425, 796.003 694.198, 796.002 693.250 C 796.001 692.563, 795.325 692, 794.500 692 C 793.675 692, 792.100 691.100, 791 690 C 789.116 688.116, 789 686.667, 789 665.071 C 789 640.603, 789.312 639, 794.071 639 C 795.132 639, 796 638.325, 796 637.500 C 796 636.250, 794 636, 784 636 C 774 636, 772 636.250, 772 637.500 M 168.462 648.619 C 167.649 658.378, 168.333 688.111, 169.410 689.855 C 169.800 690.485, 172.142 691, 174.616 691 C 190.640 691, 199.050 680.883, 197.776 663.139 C 196.750 648.850, 187.895 640, 174.622 640 L 169.180 640 168.462 648.619 M 425 650.421 C 425 651.202, 423.425 655.576, 421.500 660.140 C 419.575 664.705, 418 668.565, 418 668.720 C 418 668.874, 421.600 669, 426 669 C 430.630 669, 434 668.582, 434 668.007 C 434 665.983, 426.758 649, 425.895 649 C 425.403 649, 425 649.639, 425 650.421 M 464.075 728.288 C 459.804 729.799, 458.833 732, 462.437 732 L 465.041 732 464.771 752.250 C 464.501 772.395, 464.488 772.502, 462.250 772.820 C 461.012 772.995, 460 773.750, 460 774.497 C 460 775.530, 461.805 775.830, 467.551 775.750 C 474.941 775.647, 478.276 774.408, 474.101 773.316 C 472.290 772.843, 472 772.013, 472 767.312 C 472 763.879, 472.538 761.319, 473.450 760.407 C 474.718 759.139, 475.551 759.969, 480.047 766.978 C 483.684 772.649, 485.824 775.046, 487.346 775.157 C 488.531 775.243, 490.738 775.401, 492.250 775.507 C 495.416 775.731, 496.051 773.508, 493.046 772.722 C 491.971 772.441, 488.558 768.284, 485.461 763.484 L 479.831 754.757 483.558 750.941 C 485.607 748.842, 488.570 746.592, 490.142 745.941 C 494.832 743.999, 493.425 743, 486 743 C 482 743, 479 743.429, 479 744 C 479 744.550, 479.337 745.007, 479.750 745.015 C 480.163 745.024, 481.097 745.409, 481.828 745.872 C 482.818 746.500, 481.743 748.126, 477.603 752.266 L 472.051 757.818 471.776 742.659 C 471.467 725.690, 471.459 725.674, 464.075 728.288 M 533.075 728.306 C 529.211 729.653, 527.772 732, 530.810 732 C 531.897 732, 533.059 732.712, 533.393 733.582 C 533.727 734.452, 534 743.195, 534 753.010 C 534 767.901, 533.740 771.117, 532.429 772.429 C 531.564 773.293, 530.439 774, 529.929 774 C 529.418 774, 529 774.474, 529 775.053 C 529 776.323, 543.801 776.132, 544.592 774.851 C 544.883 774.381, 543.968 773.558, 542.560 773.023 C 540.053 772.070, 540 771.847, 540 762.212 C 540 752.635, 540.078 752.300, 542.935 749.562 C 546.120 746.511, 550.338 745.877, 552.504 748.125 C 553.870 749.542, 554.353 754.812, 554.129 765.844 C 554.018 771.287, 553.716 772.261, 552 772.710 C 550.900 772.998, 550 773.830, 550 774.560 C 550 775.550, 551.840 775.861, 557.250 775.782 C 565.693 775.660, 567.058 775.211, 563.838 773.611 C 561.635 772.516, 561.468 771.758, 560.937 760.474 C 560.627 753.888, 560.010 747.696, 559.566 746.713 C 559.121 745.730, 557.408 744.228, 555.757 743.375 C 551.692 741.272, 546.835 742.319, 543.039 746.115 L 540 749.154 540 738.077 C 540 725.769, 540.070 725.869, 533.075 728.306 M 755.075 728.306 C 750.807 729.794, 749.829 732, 753.437 732 L 756.041 732 755.771 752.250 C 755.501 772.395, 755.488 772.502, 753.250 772.820 C 752.013 772.995, 751.001 773.670, 751.001 774.320 C 751.002 775.128, 753.521 775.500, 759.002 775.500 C 764.735 775.500, 767.001 775.146, 767.001 774.250 C 767 773.563, 766.148 773, 765.107 773 C 764.066 773, 762.941 772.288, 762.607 771.418 C 762.273 770.548, 762 760.198, 762 748.418 C 762 724.568, 762.407 725.751, 755.075 728.306 M 443.750 729.080 C 440.337 731.068, 442.297 736, 446.500 736 C 450.817 736, 452.672 730.965, 449.066 729.035 C 446.702 727.770, 445.988 727.776, 443.750 729.080 M 206 731.667 C 206 732.583, 206.284 733.049, 206.631 732.702 C 206.979 732.355, 208.113 732.526, 209.153 733.082 C 210.921 734.028, 211.025 735.336, 210.771 753.297 C 210.502 772.356, 210.483 772.502, 208.250 772.820 C 207.012 772.995, 206 773.774, 206 774.551 C 206 776.616, 230.022 775.845, 235.191 773.615 C 250.284 767.103, 253.590 744.235, 240.780 734.956 C 235.742 731.306, 229.330 730, 216.451 730 C 207.363 730, 206 730.217, 206 731.667 M 310.500 731 C 310.160 731.550, 310.021 732.034, 310.191 732.077 C 310.361 732.119, 311.355 732.314, 312.400 732.510 C 313.445 732.706, 314.675 733.459, 315.135 734.184 C 316.162 735.804, 316.254 770.061, 315.235 771.634 C 314.831 772.258, 313.689 772.933, 312.697 773.134 C 311.706 773.335, 310.919 773.907, 310.949 774.403 C 311.016 775.532, 327.980 775.454, 328.060 774.324 C 328.092 773.871, 327.079 773.256, 325.809 772.958 C 323.677 772.457, 323.478 771.824, 323.208 764.708 L 322.916 757 326.592 757 C 332.544 757, 337.890 754.889, 341.048 751.293 C 343.482 748.520, 344 747.046, 344 742.888 C 344 738.687, 343.528 737.374, 341.171 735.017 C 339.615 733.462, 336.578 731.699, 334.421 731.100 C 329.490 729.731, 311.331 729.655, 310.500 731 M 622.245 731.250 C 622.471 731.938, 623.633 732.644, 624.827 732.819 C 627.851 733.264, 628.110 735.156, 627.785 754.472 C 627.506 771.077, 627.450 771.468, 625.187 772.595 C 623.915 773.229, 622.790 774.050, 622.687 774.421 C 622.584 774.791, 626.438 775.186, 631.250 775.298 C 637.428 775.442, 640 775.155, 640 774.321 C 640 773.671, 638.987 772.995, 637.750 772.820 C 635.668 772.524, 635.478 771.922, 635.208 764.750 L 634.916 757 639.208 756.978 C 648.912 756.928, 655.989 750.688, 655.996 742.173 C 656.001 736.904, 652.423 732.766, 646.421 731.100 C 640.712 729.515, 621.712 729.633, 622.245 731.250 M 218.445 734.282 C 218.175 734.987, 218.076 743.875, 218.227 754.032 L 218.500 772.500 224.460 772.288 C 233.557 771.965, 239.178 766.610, 240.499 757.009 C 241.931 746.594, 238.675 739.112, 231.030 735.250 C 226.137 732.778, 219.226 732.247, 218.445 734.282 M 323 743.500 L 323 754 327.077 754 C 333.067 754, 337 749.839, 337 743.500 C 337 737.161, 333.067 733, 327.077 733 L 323 733 323 743.500 M 635 743.500 L 635 754.260 639.717 753.728 C 645.955 753.025, 649 749.670, 649 743.500 C 649 737.330, 645.955 733.975, 639.717 733.272 L 635 732.740 635 743.500 M 418.426 738.750 C 417.619 742.019, 417.083 742.540, 414.250 742.813 C 410.042 743.219, 409.755 746, 413.921 746 L 416.841 746 417.171 758.898 C 417.451 769.890, 417.782 772.107, 419.405 773.898 C 421.570 776.287, 427.295 776.734, 431.453 774.839 C 434.722 773.350, 434.980 770.544, 431.750 771.604 C 428.995 772.509, 425.973 772.375, 424.905 771.301 C 424.467 770.860, 424.028 765.100, 423.929 758.500 L 423.749 746.500 428.374 746.195 C 431.601 745.983, 433 745.453, 433 744.445 C 433 743.381, 431.706 743, 428.095 743 L 423.190 743 423.727 739 C 424.227 735.274, 424.095 735, 421.808 735 C 419.802 735, 419.183 735.686, 418.426 738.750 M 699.426 738.750 C 698.619 742.019, 698.083 742.540, 695.250 742.813 C 690.987 743.224, 690.769 746, 695 746 L 698 746 698 758.545 C 698 770.532, 698.109 771.200, 700.455 773.545 C 703.181 776.271, 708.137 776.806, 712.453 774.839 C 716.552 772.972, 715.541 771.367, 710.310 771.437 C 704.532 771.515, 704.241 770.803, 704.100 756.250 L 704 746 709 746 C 712.778 746, 714 745.633, 714 744.500 C 714 743.362, 712.763 743, 708.868 743 L 703.737 743 704.273 739 C 704.760 735.369, 704.604 735, 702.581 735 C 700.837 735, 700.151 735.816, 699.426 738.750 M 261 742.673 C 255.747 743.486, 254 744.071, 254 745.019 C 254 745.559, 254.845 746, 255.878 746 C 259.474 746, 260.078 748.264, 259.783 760.642 C 259.510 772.079, 259.420 772.511, 257.250 772.820 C 256.012 772.995, 255.001 773.670, 255.003 774.320 C 255.005 775.116, 257.773 775.576, 263.503 775.734 C 270.281 775.921, 272 775.682, 272 774.551 C 272 773.747, 270.808 772.996, 269.250 772.816 C 266.555 772.506, 266.494 772.349, 266.185 765 C 265.830 756.575, 267.057 751.163, 269.907 748.584 C 271.720 746.943, 271.980 746.941, 274.420 748.540 C 276.510 749.909, 277.299 749.997, 278.505 748.996 C 281.632 746.401, 279.567 742, 275.223 742 C 272.491 742, 267.072 746.966, 266.850 749.673 C 266.767 750.678, 266.430 749.510, 266.100 747.078 C 265.469 742.427, 265.032 742.050, 261 742.673 M 356.500 742.661 C 355.400 742.890, 353.488 743.294, 352.250 743.558 C 351.012 743.822, 350 744.448, 350 744.950 C 350 745.451, 351.012 746.005, 352.250 746.180 C 354.452 746.493, 354.500 746.780, 354.500 759.500 C 354.500 772.220, 354.452 772.507, 352.250 772.820 C 351.012 772.995, 350 773.670, 350.001 774.320 C 350.001 775.139, 352.751 775.500, 359.001 775.500 C 365.265 775.500, 368.001 775.140, 368 774.316 C 368 773.665, 366.762 772.990, 365.250 772.816 C 362.519 772.502, 362.498 772.441, 362.207 764.062 C 361.902 755.293, 362.868 751.335, 366.007 748.494 C 367.704 746.958, 368.019 746.966, 370.537 748.616 C 373.141 750.322, 373.294 750.318, 374.621 748.503 C 377.137 745.063, 375.537 742, 371.223 742 C 368.549 742, 363 747.009, 363 749.423 C 363 752.954, 361.093 750.696, 360.807 746.828 C 360.490 742.518, 359.905 741.952, 356.500 742.661 M 386.251 743.491 C 380.849 745.838, 379.154 753, 384 753 C 386.102 753, 386.377 752.580, 387.436 747.750 C 387.917 745.551, 388.597 745, 390.828 745 C 395.303 745, 397.292 747.119, 397.402 752.005 L 397.500 756.315 392.500 757.478 C 382.189 759.877, 378.304 763.478, 379.448 769.577 C 380.758 776.555, 389.285 778.323, 395.465 772.896 L 399 769.793 399 772.428 C 399 773.928, 399.694 775.329, 400.610 775.681 C 403.150 776.655, 409.440 774.703, 409.798 772.828 C 410.040 771.557, 409.599 771.292, 407.956 771.722 C 404.680 772.579, 404.032 770.518, 404.015 759.184 C 404.007 753.511, 403.514 747.960, 402.920 746.850 C 401.636 744.451, 396.181 741.984, 392.282 742.039 C 390.752 742.061, 388.038 742.714, 386.251 743.491 M 444.652 743.108 C 441.986 743.523, 439.578 744.088, 439.302 744.365 C 438.354 745.313, 440.119 747, 442.059 747 C 443.880 747, 444 747.798, 444 759.930 C 444 772.578, 443.951 772.868, 441.750 773.180 C 436.727 773.894, 440.489 775.200, 447.567 775.200 C 455.898 775.200, 457.654 774.579, 453.639 773.053 L 451 772.050 451 757.584 C 451 749.628, 450.663 742.946, 450.250 742.736 C 449.837 742.526, 447.319 742.694, 444.652 743.108 M 506.357 742.932 C 501.593 744.988, 499.372 752.392, 502.313 756.414 C 503.035 757.401, 506.748 759.850, 510.563 761.855 C 516.764 765.113, 517.500 765.814, 517.500 768.462 C 517.500 770.595, 516.787 771.823, 514.951 772.854 C 511.260 774.926, 505.534 772.118, 503.828 767.400 C 502.024 762.411, 500 763.020, 500 768.551 C 500 772.799, 500.231 773.199, 503.468 774.551 C 505.375 775.348, 509.235 776, 512.045 776 C 516.358 776, 517.609 775.545, 520.077 773.077 C 522.146 771.008, 523 769.174, 523 766.799 C 523 762.110, 520.924 759.640, 514.792 757.031 C 508.222 754.236, 506 752.325, 506 749.467 C 506 744.597, 512.385 743.134, 516.552 747.049 C 517.899 748.314, 519 750.170, 519 751.174 C 519 752.194, 519.718 753, 520.628 753 C 521.983 753, 522.142 752.287, 521.577 748.750 C 521.203 746.413, 520.535 744.137, 520.091 743.692 C 518.851 742.450, 508.767 741.891, 506.357 742.932 M 576.898 744.282 C 574.409 745.953, 573.416 747.425, 573.187 749.782 C 572.908 752.639, 573.156 753, 575.398 753 C 577.498 753, 578.104 752.326, 579 749 C 579.941 745.505, 580.442 745, 582.967 745 C 586.252 745, 588.723 747.050, 589.587 750.491 C 590.759 755.160, 589.820 756.162, 582.565 757.986 C 571.615 760.739, 567.619 767.710, 573.576 773.667 C 575.814 775.905, 576.761 776.174, 580.793 775.720 C 584.141 775.343, 586.057 774.473, 587.669 772.598 C 590.470 769.342, 590.793 769.356, 591.184 772.750 C 591.557 775.995, 594.568 776.836, 599.095 774.961 C 602.747 773.448, 602.808 772.226, 599.250 771.816 L 596.500 771.500 596.245 760.500 C 596.099 754.189, 595.459 748.475, 594.745 747.095 C 592.093 741.973, 582.571 740.472, 576.898 744.282 M 667.421 743.419 C 664.270 744.791, 661.251 749.979, 662.463 751.940 C 662.823 752.523, 664.216 753, 665.559 753 C 667.359 753, 668 752.458, 668 750.934 C 668 747.298, 669.890 745, 672.880 745 C 676.618 745, 679 747.838, 679 752.290 C 679 755.727, 678.771 755.981, 674.750 757.008 C 664.484 759.630, 660.600 762.827, 660.600 768.656 C 660.600 776.809, 672.411 778.902, 678.100 771.756 C 679.663 769.793, 679.714 769.818, 680.325 772.874 C 681.008 776.291, 683.421 776.931, 688.435 775.025 C 691.838 773.731, 691.890 771.107, 688.500 771.755 L 686 772.233 685.900 761.867 C 685.777 748.990, 685.253 747.087, 681.060 744.261 C 677.260 741.701, 672.099 741.382, 667.421 743.419 M 728.415 743.421 C 719.680 747.225, 716.429 760.485, 722.014 769.523 C 726.631 776.994, 737.853 778.053, 745.739 771.762 C 748.160 769.831, 745.925 769.190, 742.062 770.708 C 734.564 773.653, 728.270 770.481, 726.161 762.694 C 724.860 757.888, 725.168 757.760, 736.958 758.177 C 745.617 758.483, 746.120 758.388, 746.632 756.339 C 746.929 755.150, 746.252 752.098, 745.127 749.555 C 742.131 742.782, 735.486 740.343, 728.415 743.421 M 727.989 748.250 C 726.899 750.038, 726.006 752.513, 726.004 753.750 C 726 755.869, 726.406 756, 733 756 L 740 756 740 752.723 C 740 747.846, 737.578 745, 733.429 745 C 730.600 745, 729.610 745.592, 727.989 748.250 M 391.032 760.582 C 386.985 762.338, 386.036 763.561, 386.015 767.050 C 385.996 770.310, 387.706 772, 391.026 772 C 394.985 772, 398 768.189, 398 763.186 C 398 758.429, 396.924 758.027, 391.032 760.582 M 582.397 760.907 C 577.878 762.959, 576.609 765.575, 578.389 769.166 C 579.932 772.278, 583.917 772.639, 587.305 769.975 C 589.507 768.243, 590 767.044, 590 763.427 C 590 758.277, 588.953 757.930, 582.397 760.907 M 673.500 760.209 C 667.513 762.308, 665.666 765.639, 668.035 770.066 C 669.305 772.438, 673.180 772.584, 676.535 770.385 C 678.598 769.033, 679 767.974, 679 763.885 C 679 758.630, 678.658 758.402, 673.500 760.209 M 282.750 768.080 C 280.592 769.337, 280.466 773.312, 282.530 775.025 C 283.699 775.995, 284.641 776.029, 286.530 775.168 C 289.582 773.778, 289.900 769.552, 287.066 768.035 C 284.764 766.803, 284.946 766.801, 282.750 768.080 M 362.750 819.162 C 359.546 820.333, 359.105 822, 362 822 C 363.926 822, 364 822.667, 364 840 C 364 855.333, 363.778 858, 362.500 858 C 361.675 858, 361 858.450, 361 859 C 361 859.564, 363.833 860, 367.500 860 C 373.766 860, 376.139 858.793, 372 857.710 C 370.086 857.210, 370 856.346, 370 837.594 L 370 818 367.750 818.079 C 366.512 818.122, 364.262 818.610, 362.750 819.162 M 616.750 819.162 C 613.419 820.379, 613.192 821.746, 616.250 822.180 C 618.465 822.495, 618.504 822.754, 618.775 838.775 L 619.050 855.049 616.379 857.525 L 613.708 860 620.854 860 C 627.662 860, 630.288 858.832, 626 857.710 C 624.086 857.210, 624 856.346, 624 837.594 L 624 818 621.750 818.079 C 620.513 818.122, 618.263 818.610, 616.750 819.162 M 381.040 820.452 C 378.953 822.966, 380.195 825.500, 383.514 825.500 C 385.900 825.500, 386.568 825.021, 386.837 823.113 C 387.358 819.434, 383.395 817.615, 381.040 820.452 M 265.500 821.516 C 258.200 825.450, 254.059 832.220, 254.022 840.282 C 253.975 850.456, 261.352 860, 269.262 860 C 270.744 860, 272.479 861.156, 273.918 863.103 C 277.113 867.425, 284.026 870.340, 289.062 869.490 C 294.082 868.641, 295.168 867, 290.709 867 C 287.487 867, 278.985 862.090, 279.010 860.244 C 279.016 859.835, 280.764 858.768, 282.896 857.873 C 288.620 855.470, 292.499 848.435, 292.475 840.500 C 292.453 833.164, 289.998 827.823, 284.713 823.609 C 281.597 821.125, 279.825 820.529, 274.713 820.245 C 270.349 820.003, 267.607 820.381, 265.500 821.516 M 658.500 821.326 C 653.507 823.280, 650.490 825.783, 648.184 829.886 C 643.397 838.403, 644.502 848.738, 650.882 855.118 C 656.954 861.189, 664.426 862.214, 674.175 858.313 C 677.691 856.907, 678 856.468, 678 852.891 C 678 850.751, 677.757 849, 677.460 849 C 677.163 849, 675.151 850.860, 672.988 853.133 C 669.260 857.052, 668.818 857.240, 664.466 856.749 C 656.633 855.866, 652 849.661, 652 840.052 C 652 830.781, 656.154 824.342, 663.242 822.629 C 667.292 821.650, 672.408 824.157, 673.949 827.877 C 676.370 833.721, 679.128 830.812, 677.374 824.266 C 676.343 820.419, 665.238 818.689, 658.500 821.326 M 460 822 C 460 822.550, 460.852 823, 461.893 823 C 464.680 823, 465 824.765, 465 840.148 C 465 854.121, 464.232 858, 461.465 858 C 460.659 858, 460 858.450, 460 859 C 460 860.684, 479.502 860.235, 483.768 858.452 C 492.271 854.900, 496.392 847.937, 495.834 838.064 C 495.102 825.120, 489.241 821.057, 471.250 821.022 C 464.402 821.009, 460 821.391, 460 822 M 269.313 823.176 C 258.046 826.175, 257.559 849.220, 268.618 856.069 C 272.538 858.497, 275.652 858.509, 279.580 856.114 C 283.839 853.517, 286 848.449, 286 841.059 C 286 828.826, 278.457 820.743, 269.313 823.176 M 471 839.933 C 471 859.095, 471.024 859.148, 478.878 857.033 C 491.966 853.509, 494.047 830.554, 481.784 824.988 C 479.428 823.919, 476.038 823.034, 474.250 823.022 L 471 823 471 839.933 M 398.566 828.500 C 398.027 831.371, 397.468 832, 395.455 832 C 393.939 832, 393 832.574, 393 833.500 C 393 834.333, 393.889 835, 395 835 C 396.862 835, 397.001 835.672, 397.015 844.750 C 397.033 857.109, 398.052 859.391, 403.735 859.806 C 407.811 860.103, 412 858.746, 412 857.129 C 412 856.688, 410.087 856.366, 407.750 856.414 L 403.500 856.500 403.216 845.750 L 402.932 835 406.466 835 C 408.941 835, 410 834.550, 410 833.500 C 410 832.452, 408.944 832, 406.500 832 C 403.167 832, 403 831.833, 403 828.500 C 403 825.735, 402.603 825, 401.111 825 C 399.745 825, 399.041 825.967, 398.566 828.500 M 568.363 828.250 C 567.649 830.754, 566.812 831.573, 564.718 831.816 C 561.243 832.221, 561.053 835, 564.500 835 L 567 835 567 845.845 C 567 855.081, 567.271 856.935, 568.829 858.345 C 570.887 860.208, 576.148 860.527, 579.066 858.965 C 582.017 857.385, 581.370 855.976, 578.002 856.650 C 572.857 857.679, 572 855.997, 572 844.878 L 572 835 576 835 C 578.889 835, 580 834.583, 580 833.500 C 580 832.417, 578.889 832, 576 832 C 572.095 832, 572 831.917, 572 828.500 C 572 823.984, 569.626 823.820, 568.363 828.250 M 338.329 832.458 C 332.981 834.784, 331.263 841, 335.969 841 C 337.453 841, 338 840.346, 338 838.571 C 338 835.427, 340.427 833.037, 342.950 833.697 C 345.719 834.421, 346.699 835.923, 347.171 840.168 C 347.573 843.780, 347.517 843.845, 343.507 844.447 C 334.760 845.758, 329.600 851.296, 332.149 856.637 C 333.329 859.109, 334.164 859.542, 338.255 859.805 C 342.295 860.064, 343.352 859.724, 345.419 857.492 L 347.845 854.876 348.172 857.188 C 348.435 859.043, 349.209 859.559, 352.086 859.801 C 354.405 859.995, 356.126 859.554, 356.958 858.551 C 358.065 857.217, 357.878 857, 355.622 857 L 353 857 353 848.065 C 353 837.068, 352.044 834.334, 347.538 832.452 C 343.325 830.691, 342.389 830.692, 338.329 832.458 M 510.309 832.128 C 501.416 834.632, 499.007 851.927, 506.707 857.984 C 510.298 860.809, 518.746 860.774, 522.375 857.920 C 525.693 855.310, 524.891 853.654, 521.233 855.562 C 516.077 858.252, 510.991 856.607, 508.548 851.460 C 505.795 845.658, 506.054 845.463, 515.999 845.849 L 525 846.199 525 843.050 C 525 834.871, 518.289 829.882, 510.309 832.128 M 593.255 832.142 C 589.619 833.164, 586.463 837.158, 587.387 839.566 C 588.335 842.037, 591.273 840.811, 592.136 837.585 C 593.046 834.182, 594.492 833.054, 597.078 833.731 C 599.560 834.380, 600.595 835.850, 601.342 839.788 C 602.016 843.346, 602.164 843.219, 595.266 844.985 C 586.926 847.119, 583.256 853.310, 587.530 858.033 C 590.222 861.008, 596.449 860.697, 599.470 857.438 L 601.845 854.876 602.172 857.188 C 602.428 858.992, 603.229 859.570, 605.815 859.818 C 609.022 860.126, 612 858.701, 612 856.859 C 612 856.365, 610.875 856.244, 609.500 856.589 L 607 857.217 607 848.174 C 607 843.200, 606.572 838.003, 606.048 836.626 C 604.501 832.558, 598.838 830.573, 593.255 832.142 M 691.211 832.119 C 687.724 833.135, 685.310 836.760, 686.337 839.436 C 687.360 842.101, 689.896 841.182, 690.764 837.832 C 691.215 836.090, 692.333 834.193, 693.247 833.616 C 695.741 832.043, 700 836.395, 700 840.515 C 700 843.527, 699.738 843.740, 694.647 844.880 C 686.030 846.808, 682.007 852.310, 685.413 857.507 C 687.806 861.159, 694.307 861.029, 698.285 857.250 C 700.129 855.498, 701.103 855.044, 700.971 856 C 700.526 859.212, 701.106 860, 703.918 860 C 707.824 860, 710 859.078, 710 857.424 C 710 856.587, 709.384 856.299, 708.399 856.677 C 705.814 857.669, 705.032 855.066, 705.015 845.424 C 705.002 837.302, 704.764 836.132, 702.750 834.282 C 699.941 831.703, 695.497 830.870, 691.211 832.119 M 729 831.928 C 727.503 832.295, 725.898 833.829, 725 835.749 C 723.025 839.972, 721.986 839.860, 722.694 835.500 C 723.233 832.176, 723.117 832.001, 720.381 832.014 C 716.513 832.032, 713 833.033, 713 834.117 C 713 834.602, 713.852 835, 714.893 835 C 717.549 835, 718 836.840, 718 847.675 C 718 856.346, 717.823 857.233, 716 857.710 C 711.636 858.852, 714.394 860, 721.500 860 C 725.625 860, 729 859.752, 729 859.448 C 729 859.144, 727.650 858.425, 726 857.850 C 723.056 856.824, 723 856.676, 723 849.870 C 723 838.902, 726.633 833.074, 730.867 837.250 C 731.883 838.252, 732.419 838.115, 733.567 836.559 C 734.355 835.491, 735 834.270, 735 833.844 C 735 832.418, 731.525 831.308, 729 831.928 M 746.270 832.114 C 744.288 832.686, 742.067 834.479, 740.520 836.755 C 735.842 843.640, 737.768 855.665, 744.090 859.048 C 747.191 860.708, 756.502 859.760, 758.961 857.535 C 761.683 855.072, 760.582 853.815, 757.233 855.562 C 753.227 857.652, 749.636 857.319, 746.686 854.585 C 744.137 852.222, 742.200 847.467, 743.328 846.339 C 743.641 846.026, 747.632 845.710, 752.198 845.635 C 760.422 845.501, 760.503 845.475, 760.810 842.816 C 761.271 838.825, 758.355 834.046, 754.466 832.421 C 750.648 830.826, 750.717 830.829, 746.270 832.114 M 296.250 832.662 C 294.335 833.435, 294.765 835, 296.893 835 C 299.539 835, 300 836.843, 300 847.427 C 300 855.131, 300.308 856.969, 301.829 858.345 C 304.596 860.849, 310.316 860.446, 313.818 857.500 C 317.453 854.441, 317.679 854.426, 317.579 857.250 C 317.522 858.880, 318.148 859.592, 319.852 859.833 C 325.037 860.567, 329.469 857.879, 325 856.710 C 323.139 856.224, 323 855.346, 323 844.094 L 323 832 319.582 832 C 313.693 832, 310.683 834.161, 315 835.290 C 316.801 835.761, 317 836.654, 317 844.251 C 317 853.413, 316.113 855.192, 310.894 856.494 C 306.064 857.699, 305 855.251, 305 842.929 L 305 832 301.250 832.079 C 299.188 832.122, 296.938 832.385, 296.250 832.662 M 379.031 833.112 L 376.562 834.097 379.031 835.326 C 381.386 836.497, 381.513 837.032, 381.786 846.861 C 382.054 856.511, 381.942 857.202, 380.036 857.701 C 375.865 858.792, 378.211 860, 384.500 860 C 390.766 860, 393.139 858.793, 389 857.710 C 387.134 857.222, 387 856.346, 387 844.594 L 387 832 384.250 832.063 C 382.738 832.098, 380.389 832.570, 379.031 833.112 M 414 832.965 C 414 833.495, 414.813 834.365, 415.806 834.896 C 416.799 835.428, 419.981 841.323, 422.875 847.996 L 428.139 860.129 425.437 863.671 C 423.952 865.619, 421.221 867.846, 419.368 868.620 C 415.661 870.168, 415.247 871.130, 417.487 872.989 C 419.831 874.934, 423.706 873.327, 426.466 869.265 C 427.852 867.224, 431.515 859.017, 434.605 851.027 C 437.695 843.037, 441.073 835.883, 442.112 835.128 C 445.253 832.846, 444.276 832, 438.500 832 C 435.475 832, 433 832.265, 433 832.590 C 433 832.914, 433.905 833.927, 435.010 834.840 C 437.016 836.496, 437.014 836.519, 434.298 844.750 C 432.801 849.288, 431.334 852.997, 431.038 852.993 C 429.976 852.979, 423.779 836.166, 424.441 835.095 C 424.814 834.493, 425.766 834, 426.559 834 C 427.352 834, 428 833.550, 428 833 C 428 832.429, 425 832, 421 832 C 417.150 832, 414 832.434, 414 832.965 M 531.250 832.706 C 530.013 832.944, 529 833.527, 529 834 C 529 834.473, 530.013 835.005, 531.250 835.180 C 533.405 835.486, 533.512 835.960, 533.785 846.335 C 534.052 856.512, 533.946 857.201, 532.035 857.701 C 527.865 858.792, 530.212 860, 536.500 860 C 540.167 860, 543 859.564, 543 859 C 543 858.450, 542.373 858, 541.607 858 C 539.594 858, 539 855.721, 539 847.995 C 539 842.064, 539.350 840.737, 541.634 838.023 C 543.560 835.735, 544.965 834.975, 546.861 835.196 C 550.620 835.637, 551.968 839.227, 551.985 848.844 C 551.999 856.353, 551.800 857.240, 550 857.710 C 545.861 858.793, 548.234 860, 554.500 860 C 560.766 860, 563.139 858.793, 559 857.710 C 557.169 857.231, 557 856.346, 557 847.228 C 557 838.668, 556.709 836.900, 554.927 834.635 C 552.100 831.040, 546.395 830.978, 542.595 834.500 C 541.111 835.875, 539.695 837, 539.448 837 C 539.202 837, 539 835.875, 539 834.500 C 539 831.908, 537.361 831.529, 531.250 832.706 M 510.983 834.843 C 509.877 835.754, 508.560 837.962, 508.056 839.750 L 507.140 843 513.570 843 C 519.594 843, 520 842.856, 520 840.723 C 520 835.400, 514.587 831.871, 510.983 834.843 M 747.656 834.133 C 746.119 835.026, 743 840.609, 743 842.468 C 743 842.761, 745.700 843, 749 843 L 755 843 755 839.557 C 755 837.132, 754.342 835.653, 752.777 834.557 C 750.180 832.737, 750.072 832.728, 747.656 834.133 M 341 847.752 C 337.241 849.629, 335.952 853.033, 338.046 855.555 C 341.216 859.375, 347.258 855.503, 347.566 849.456 C 347.772 845.407, 346.404 845.052, 341 847.752 M 595 847.752 C 591.241 849.629, 589.952 853.033, 592.046 855.555 C 595.216 859.375, 601.258 855.503, 601.566 849.456 C 601.772 845.407, 600.404 845.052, 595 847.752 M 694 847.752 C 691.210 849.145, 690.500 850.087, 690.500 852.391 C 690.500 856.429, 693.186 857.965, 696.759 855.968 C 698.964 854.736, 699.560 853.612, 699.807 850.218 C 700.159 845.395, 699.380 845.064, 694 847.752" stroke="none" fill="#000000" fill-rule="evenodd"/>
</svg>